<?xml version="1.0" standalone="no"?>
<!DOCTYPE svg PUBLIC "-//W3C//DTD SVG 20010904//EN"
 "http://www.w3.org/TR/2001/REC-SVG-20010904/DTD/svg10.dtd">
<svg version="1.0" xmlns="http://www.w3.org/2000/svg"
 width="64.000000pt" height="64.000000pt" viewBox="0 0 64.000000 64.000000"
 preserveAspectRatio="xMidYMid meet">

<g transform="translate(0.000000,64.000000) scale(0.100000,-0.100000)"
fill="#032428" stroke="none">
<path d="M286 574 c-9 -8 -16 -24 -16 -35 0 -30 -44 -43 -82 -23 -29 15 -32
15 -55 -9 -24 -23 -24 -26 -9 -55 22 -42 8 -77 -32 -85 -55 -11 -55 -83 0 -94
41 -8 54 -44 31 -84 -17 -29 -17 -30 10 -56 26 -27 27 -27 56 -10 40 23 76 10
84 -31 11 -55 83 -55 94 0 8 41 44 54 84 31 29 -17 30 -17 56 10 27 26 27 27
10 56 -23 40 -10 76 31 84 33 7 48 34 37 67 -4 13 -19 23 -37 27 -40 8 -54 43
-32 85 15 29 15 32 -9 55 -23 24 -26 24 -55 9 -38 -20 -82 -7 -82 23 0 44 -54
66 -84 35z m69 -34 c10 -46 62 -65 105 -38 16 10 23 10 37 -5 15 -14 15 -21 5
-37 -27 -45 1 -110 48 -110 16 0 20 -7 20 -30 0 -23 -4 -30 -20 -30 -47 0 -75
-65 -48 -110 10 -16 10 -23 -5 -37 -14 -15 -21 -15 -37 -5 -45 27 -110 -1
-110 -48 0 -16 -7 -20 -30 -20 -23 0 -30 4 -30 20 0 47 -65 75 -110 48 -16
-10 -23 -10 -37 5 -15 14 -15 21 -5 37 27 45 -1 110 -48 110 -16 0 -20 7 -20
30 0 23 4 30 20 30 47 0 75 65 48 110 -10 16 -10 23 5 37 14 15 21 15 37 5 43
-27 95 -8 105 38 5 25 12 30 35 30 23 0 30 -5 35 -30z"/>
<path d="M232 363 c-14 -26 -22 -103 -11 -103 5 0 9 7 9 15 0 8 9 15 20 15 11
0 20 -7 20 -15 0 -8 4 -15 9 -15 11 0 3 77 -11 103 -5 9 -13 17 -18 17 -5 0
-13 -8 -18 -17z m30 -28 c4 -19 1 -25 -12 -25 -13 0 -16 6 -12 25 2 14 8 25
12 25 4 0 10 -11 12 -25z"/>
<path d="M310 321 c0 -34 4 -61 10 -61 6 0 10 9 10 19 0 12 8 21 21 23 56 8
48 70 -10 76 l-31 3 0 -60z m60 19 c0 -13 -7 -20 -20 -20 -13 0 -20 7 -20 20
0 13 7 20 20 20 13 0 20 -7 20 -20z"/>
<path d="M410 320 c0 -33 4 -60 10 -60 6 0 10 27 10 60 0 33 -4 60 -10 60 -6
0 -10 -27 -10 -60z"/>
</g>
</svg>
