<?xml version="1.0" standalone="no"?>
<!DOCTYPE svg PUBLIC "-//W3C//DTD SVG 20010904//EN"
 "http://www.w3.org/TR/2001/REC-SVG-20010904/DTD/svg10.dtd">
<svg version="1.0" xmlns="http://www.w3.org/2000/svg"
 width="96.000000pt" height="96.000000pt" viewBox="0 0 96.000000 96.000000"
 preserveAspectRatio="xMidYMid meet">

<g transform="translate(0.000000,96.000000) scale(0.100000,-0.100000)"
fill="#032428" stroke="none">
<path d="M426 864 c-9 -8 -16 -25 -16 -38 0 -29 -18 -50 -57 -66 -29 -11 -35
-10 -59 9 -36 28 -65 26 -97 -7 -32 -34 -34 -60 -6 -96 19 -24 20 -30 9 -59
-16 -39 -37 -57 -66 -57 -34 0 -54 -26 -54 -70 0 -42 20 -70 50 -70 34 0 51
-12 65 -47 14 -33 13 -38 -5 -68 -27 -43 -25 -63 7 -97 32 -33 54 -35 98 -8
30 18 36 19 66 6 27 -11 36 -23 49 -63 14 -44 18 -48 49 -51 62 -6 80 4 92 54
10 37 17 47 47 59 32 14 37 13 67 -5 43 -27 63 -25 97 7 33 32 35 54 8 98 -19
30 -19 35 -5 68 12 29 22 37 50 43 48 9 65 28 65 74 0 44 -20 70 -54 70 -29 0
-50 18 -66 57 -11 29 -10 35 9 59 28 36 26 65 -7 97 -34 32 -60 34 -96 6 -24
-19 -30 -20 -59 -9 -39 16 -57 37 -57 66 0 13 -7 30 -16 38 -20 21 -88 21
-108 0z m92 -16 c7 -7 12 -23 12 -37 0 -34 8 -45 47 -65 42 -21 72 -20 103 4
32 25 39 25 67 -2 28 -26 28 -36 3 -68 -24 -31 -25 -61 -4 -103 20 -39 31 -47
65 -47 32 0 49 -17 49 -50 0 -33 -17 -50 -50 -50 -33 0 -44 -8 -64 -47 -21
-42 -20 -72 4 -103 25 -32 25 -39 -2 -67 -26 -28 -36 -28 -68 -3 -31 24 -59
25 -105 3 -23 -11 -37 -26 -41 -43 -12 -56 -23 -70 -54 -70 -31 0 -42 14 -54
70 -4 17 -18 32 -41 43 -46 22 -74 21 -105 -3 -32 -25 -39 -25 -67 2 -28 26
-28 36 -3 68 24 31 25 61 4 103 -20 39 -31 47 -64 47 -33 0 -50 17 -50 50 0
33 17 50 50 50 33 0 44 8 64 47 21 42 20 72 -4 103 -25 32 -25 39 2 67 26 28
36 28 68 3 31 -24 61 -25 103 -4 39 20 47 31 47 65 0 14 5 30 12 37 15 15 61
15 76 0z"/>
<path d="M354 562 c-10 -6 -34 -122 -34 -161 0 -21 20 -10 26 14 4 18 13 25
29 25 16 0 25 -7 29 -25 4 -14 11 -25 16 -25 13 0 12 5 -1 93 -11 68 -20 87
-44 87 -5 0 -15 -4 -21 -8z m36 -46 c0 -13 3 -31 6 -40 5 -12 0 -16 -21 -16
-21 0 -26 4 -21 16 3 9 6 27 6 40 0 15 6 24 15 24 9 0 15 -9 15 -24z"/>
<path d="M470 480 c0 -53 4 -90 10 -90 6 0 10 14 10 30 0 26 4 30 26 30 46 0
64 17 64 60 0 45 -18 60 -74 60 l-36 0 0 -90z m85 30 c0 -21 -5 -26 -32 -28
-31 -3 -33 -1 -33 28 0 29 2 31 33 28 27 -2 32 -7 32 -28z"/>
<path d="M620 480 c0 -53 4 -90 10 -90 6 0 10 37 10 90 0 53 -4 90 -10 90 -6
0 -10 -37 -10 -90z"/>
</g>
</svg>
